# xmcd
#
# Track frame offsets: 
#        150
#        12278
#        26786
#        38911
#        52541
#        64516
#        76484
#        88208
#        99007
#        111438
#        125234
#        137170
#        150126
#        163462
#        173380
#        185802
#        198298
#        211403
#        223215
#        236444
#        247263
#        258470
#        267311
#        277680
#        290886
#        303584
#
# Disc length: 4272 seconds
#
# Revision: 1
# Processed by: cddbd v1.5.2PL0 Copyright (c) Steve Scherf et al.
# Submitted via: ExactAudioCopy v1.0b1
#
DISCID=7c10ae1a
DTITLE=Various Artist - Just A Little Misunderstanding - The Contours and Denni
DTITLE=s Edwards
DYEAR=2014
DGENRE=R&B
TTITLE0=The Contours - Just A Little Misunderstanding
TTITLE1=The Contours - First I Look At The Purse (prev unissued versio
TTITLE1=n)
TTITLE2=The Contours - It's Growing
TTITLE3=The Contours - Baby Hit And Run (prev unissued version)
TTITLE4=The Contours - It's So Hard Being A Loser
TTITLE5=The Contours - Determination
TTITLE6=The Contours - A Weak Spot In My Heart
TTITLE7=Dennis Edwards - Girl Come On In
TTITLE8=The Contours - I Can't Help Loving You Baby
TTITLE9=The Contours - Your Love Grows More Precious Everyday
TTITLE10=Dennis Edwards - I'm Here Now That You Need Me
TTITLE11=Dennis Edwards - What Becomes Of The Brokenhearted
TTITLE12=Dennis Edwards - Sunny
TTITLE13=Dennis Edwards - Keep On Tryin' (Till You Find Love)
TTITLE14=Dennis Edwards - Ain't That Peculiar
TTITLE15=Dennis Edwards - Can't Do Without Your Love
TTITLE16=Dennis Edwards - I Like Everything About You
TTITLE17=Dennis Edwards - What's So Good About Goodbye
TTITLE18=Dennis Edwards - Which Way To My Baby
TTITLE19=Dennis Edwards - I'll Turn To Stone
TTITLE20=The Contours - Need Your Lovin' (Want You Back)
TTITLE21=The Contours - Our Last Rendezvous
TTITLE22=The Contours - Sometimes I Have To Cry
TTITLE23=The Contours - I Grow Deeper In Love Every Day
TTITLE24=The Contours - Come See About Me
TTITLE25=The Contours - When A Man Loves A Woman
EXTD=
EXTT0=
EXTT1=
EXTT2=
EXTT3=
EXTT4=
EXTT5=
EXTT6=
EXTT7=
EXTT8=
EXTT9=
EXTT10=
EXTT11=
EXTT12=
EXTT13=
EXTT14=
EXTT15=
EXTT16=
EXTT17=
EXTT18=
EXTT19=
EXTT20=
EXTT21=
EXTT22=
EXTT23=
EXTT24=
EXTT25=
PLAYORDER=
